<svg id="Layer_1" data-name="Layer 1" xmlns="http://www.w3.org/2000/svg" viewBox="0 0 71.05 54.15"><defs><style>.cls-1{fill:#565f8e;}</style></defs><path class="cls-1" d="M60.1,4.49A58.09,58.09,0,0,0,45.65,0a.21.21,0,0,0-.23.11q-1,1.8-1.8,3.69a53.85,53.85,0,0,0-16.23,0A36.16,36.16,0,0,0,25.56.12.21.21,0,0,0,25.33,0,58.09,58.09,0,0,0,10.88,4.49a.16.16,0,0,0-.1.08C1.58,18.32-.94,31.73.29,45a.27.27,0,0,0,.1.17,59.19,59.19,0,0,0,17.72,9,.22.22,0,0,0,.25-.08A40.56,40.56,0,0,0,22,48.13a.22.22,0,0,0-.09-.3h0a40.73,40.73,0,0,1-5.54-2.64.24.24,0,0,1-.06-.32l.06-.06,1.1-.86a.2.2,0,0,1,.23,0,42,42,0,0,0,35.68,0,.2.2,0,0,1,.23,0c.36.3.73.59,1.1.87a.24.24,0,0,1,.06.32l-.06.06a36.47,36.47,0,0,1-5.54,2.63.24.24,0,0,0-.12.32h0A48.89,48.89,0,0,0,52.65,54a.22.22,0,0,0,.25.08,58.65,58.65,0,0,0,17.75-9,.2.2,0,0,0,.09-.17A59.62,59.62,0,0,0,60.2,4.59.17.17,0,0,0,60.1,4.49ZM23.73,36.92c-3.5,0-6.38-3.22-6.38-7.16s2.82-7.17,6.38-7.17,6.43,3.24,6.38,7.16S27.28,36.92,23.73,36.92Zm23.59,0c-3.5,0-6.38-3.22-6.38-7.16s2.82-7.17,6.38-7.17,6.43,3.24,6.38,7.16S50.9,36.92,47.32,36.92Z" transform="translate(0 -0.01)"/></svg>