<svg id="Layer_1" data-name="Layer 1" xmlns="http://www.w3.org/2000/svg" viewBox="0 0 23.89 24"><defs><style>.cls-1{fill:#22ba45;}</style></defs><path class="cls-1" d="M.06,24l1.68-6.16A11.91,11.91,0,0,1,12.05,0a11.9,11.9,0,0,1,0,23.79,12,12,0,0,1-5.69-1.44Zm6.59-3.81a9.82,9.82,0,1,0-2.74-2.66l-1,3.64ZM18,14.73c-.07-.12-.27-.2-.57-.35s-1.76-.87-2-1-.47-.14-.67.15-.77,1-.94,1.17-.35.22-.64.07a8,8,0,0,1-2.39-1.47,9,9,0,0,1-1.66-2.06c-.17-.3,0-.46.13-.61a6.26,6.26,0,0,0,.45-.52,1.9,1.9,0,0,0,.3-.49.53.53,0,0,0,0-.52C9.92,9,9.33,7.52,9.08,6.92s-.49-.5-.67-.51H7.84a1.07,1.07,0,0,0-.79.37A3.36,3.36,0,0,0,6,9.25a5.73,5.73,0,0,0,1.21,3.07,13.3,13.3,0,0,0,5.08,4.49,17.33,17.33,0,0,0,1.69.63,4.25,4.25,0,0,0,1.87.12,3.08,3.08,0,0,0,2-1.42A2.39,2.39,0,0,0,18,14.73Z" transform="translate(-0.06)"/></svg>